<svg version="1" xmlns="http://www.w3.org/2000/svg" width="1333.333" height="1333.333" viewBox="0 0 1000.000000 1000.000000"><path d="M372.1 209.7c-1.9.9-5.5 4.4-8 7.7s-5.4 6.8-6.3 7.8c-1 1-1.5 1.8-1 1.8.4 0 .2.4-.3.8-.6.4-3.3 3.6-6 7.2-2.8 3.6-5.3 6.7-5.6 7-.3.3-2.5 3.2-5 6.5-2.4 3.3-4.7 6.1-5.1 6.3-.5.2-.8 1-.8 1.7s-.4 1.5-.9 1.7c-.5.1-5.9 6.8-12 14.8s-13 17-15.4 20c-2.4 3-7.9 10.2-12.3 15.9-4.3 5.7-8.6 11.1-9.4 12-.8.9-2.3 2.8-3.2 4.3-1.6 2.5-3.4 3.1-18.3 6.4-.5.1-5.7 1.4-11.5 2.9s-11.3 2.8-12.2 3c-4.8 1-8.2 4.6-13.5 14.5-1.7 3-4.5 8.2-6.3 11.5-1.8 3.3-4.5 8.2-6 11-1.5 2.7-5.4 9.9-8.7 16-3.3 6-7.7 14.1-9.8 18-2.1 3.8-4.5 8.3-5.5 10-1 1.6-3.3 5.9-5.2 9.5-6.4 11.7-9.5 17.4-11.5 21-1.1 1.9-3.5 6.4-5.4 10-1.8 3.6-3.6 6.7-3.9 7-.3.3-1.9 3.2-3.6 6.5-1.7 3.3-5 9.4-7.3 13.5-8.9 15.8-11.4 21.9-11.7 28-.2 3.2.2 6.9.9 8.3.9 2.1 6.7 6.9 8.6 7.3 4.1.8 7.2 1.8 7.7 2.5.3.5 1.1.9 1.9.9.8 0 2.6.5 4.2 1.1 1.5.7 3.5 1.3 4.3 1.4.8.1 3.8.9 6.5 1.7 4.3 1.4 8 2.4 12 3.3.6.2 3.6 1 6.7 1.9 3.1 1 6.8 1.9 8.2 2.2 1.3.2 8 1.8 14.8 3.4 6.7 1.7 13.4 3.2 14.8 3.4 1.4.2 5.9 1 10 1.9 4.1.9 8.9 1.9 10.5 2.2 1.7.2 4.1.7 5.5 1 3.9.9 37.2 6.7 40 7 2.3.3 7.2 1.1 13 2.1 1.4.2 4.5.6 7 1 2.5.3 5.6.7 7 1 1.4.2 4.3.7 6.5 1 2.2.3 5.4.7 7 1 1.7.2 5 .6 7.5.9 2.5.2 6.1.7 8 1 1.9.4 5.8.8 8.5 1 2.8.2 5.1.5 5.3.6.5.3 1.9.5 9.7 1.3 4.4.5 8.9 1 10 1.2 1.1.3 4.7.7 8 .9 3.3.3 7.4.7 9 .9 1.7.3 6.4.7 10.5 1.1 4.1.4 8.9.9 10.5 1.1 1.7.3 6.4.7 10.5.9 4.1.3 9.3.7 11.5 1 6.8.7 18.8 1.7 24 2 2.8.2 5 .4 5 .5 0 .1 2.9.3 6.5.5s9.7.6 13.5.9c6.6.5 23.7 1.6 33.5 2.1 2.5.2 4.5.3 4.5.4 0 .1 6.1.4 13.5.6 7.4.2 17.6.7 22.5 1 13.2.8 41.2 1.6 64.1 1.9 11 .2 20.6.6 21.2 1 .7.4 1.2.3 1.2-.1 0-.9 5.7-.9 6.6 0 .3.3 1.8.2 3.3-.3 1.6-.4 3.4-.4 4.2 0 .7.5 2 .5 2.8.1.9-.4 2.7-.5 4.1-.1 1.4.4 3.5.3 4.7-.1 1.2-.5 2.5-.4 2.8.1.3.5 1.8.5 3.4 0 1.5-.4 3.4-.4 4.2 0 .7.5 2 .5 2.9 0 .9-.5 2.2-.5 2.9 0 .8.4 2.5.5 4 .1 1.4-.5 3.8-.4 5.3 0 1.6.4 3 .4 3.2 0 .6-.9 9.1-.6 10.6.4.5.3 1 .3 1-.2 0-.4 5.5-.9 12.3-.9 14.2-.2 53.5-1.3 62.2-1.9 3.3-.2 11.2-.6 17.5-1 31.2-1.5 35.9-2.2 39.7-5.1 4.1-3.1 5.4-5.6 5.9-11 .6-5.8-.7-8.5-7.9-17.3-18.6-22.5-36.3-43.8-37.9-45.6-.9-1.1-7.9-9.4-15.4-18.5-7.6-9.1-15.1-18.1-16.8-20.1-1.7-1.9-4-4.6-5.1-6-9.8-11.8-30.1-35.6-30.9-36.1-.6-.4-.8-.8-.4-.8s-.3-1-1.5-2.3c-1.2-1.2-5.7-6.4-10.1-11.6-8.6-10.2-11.9-12.3-18.9-11.7-9.2.8-13.1 5-17.8 19.1-3.9 11.9-3.3 12-13.5-1.7-4.9-6.7-9.1-12.6-9.3-13.2-.2-.6-1.5-2.2-2.8-3.5-1.2-1.4-2.3-3.1-2.3-3.8 0-.6-.3-1.3-.8-1.5-.8-.3-14.7-19.9-33.8-47.8-4.3-6.3-8.2-12-8.6-12.5-3-4-5.8-6.5-7.1-6.5-.9 0-1.8-.4-2.1-.9-.4-.7-4.5-.6-11.4.1-1.6.2-7.7 6-12.2 11.7-1.9 2.4-4.2 5.1-5 6-.8.9-3.5 4.1-6 7.1s-5.5 6.6-6.7 8c-5 5.7-6.3 7.3-9.5 11.3-1.8 2.3-4.2 5.1-5.3 6.3-1.6 1.6-8.3 9.6-16 19.1-.5.7-2.1 2.6-3.5 4.1-1.4 1.5-4.5 5.2-7 8.2-8.2 9.8-8.8 10.5-9.3 10-1.7-2-13.7-21.2-13.7-22 0-.6-.4-1-.8-1-.5 0-1.5-1.2-2.3-2.7-.8-1.6-6.7-11-13.1-21.1-6.5-10-11.8-18.7-11.8-19.2 0-.6-.4-1-.8-1-.5 0-1.7-1.7-2.8-3.8-1-2-2.1-3.9-2.4-4.2-.9-.8-10-15.1-24.5-38-5.4-8.5-10.3-15.8-10.9-16.2-.6-.4-.7-.8-.3-.8.4 0-.3-1.5-1.7-3.3-1.5-1.9-2.6-3.9-2.6-4.5 0-.6-.3-1.2-.7-1.4-1.2-.5-11.3-16.3-11.3-17.6 0-.7-.3-1.2-.7-1.2-.5 0-3-3.7-5.8-8.1-2.7-4.4-7.8-12.3-11.2-17.6-3.5-5.2-6.3-9.6-6.3-9.8 0-.2-1.9-3.3-4.3-6.9-4.1-6.2-10.7-12.6-13.1-12.6-.6-.1-2.7-.3-4.6-.5-2.1-.3-4.8.2-6.9 1.2zm-.6 65.3c1.6 12.4 5.9 25.8 11.4 36.5 1.4 2.7 2.9 5.1 3.4 5.3.4.2.7.9.7 1.5 0 .7 1.8 3.2 3.9 5.6 3.5 4.1 3.9 4.3 4.9 2.5 2.9-5.5 3.3-35.6.5-43-.6-1.7-.5-1.7 1-.5.9.7 1.7 1.9 1.7 2.6 0 .8.3 1.5.8 1.7.9.4 5.2 6.5 5.2 7.3 0 .4 1.4 2.6 3 5 1.7 2.4 3 4.6 3 5 0 .4.6 1.2 1.3 1.9.6.7 7.2 10.7 14.5 22.2s18.5 29 24.9 38.9c6.3 9.9 12 18.9 12.7 20 .6 1.1 1.3 2.2 1.6 2.5.3.3 2.5 3.6 4.9 7.5 5.2 8.4 8.4 13.2 18.5 28.8 4.2 6.4 7.6 11.9 7.6 12.1 0 .3 2.2 3.7 5 7.8 2.7 4 5 7.9 5 8.7 0 .8-1.2 2.6-2.7 4.1-1.6 1.4-5 5.2-7.8 8.5-11.5 13.4-22.1 23.2-30 27.9-9.8 5.8-21.7 13.1-23 14.3-.6.4-4.3 2.9-8.2 5.6-4 2.6-8.1 5.3-9 6.1-10.7 8.7-15.6 12.9-19.7 17.4l-5 5.3-5.5-.6c-3.1-.4-7.4-.9-9.6-1.2-2.2-.2-6-.7-8.5-.9-2.5-.2-5.6-.6-7-.8-1.4-.3-5-.8-8-1.2-3-.3-6.6-.8-8-1-1.4-.2-4.7-.5-7.5-.8-2.7-.3-6.3-.8-8-1.1-1.6-.2-5.2-.7-8-1-2.7-.3-5.7-.8-6.5-1-.8-.2-3.9-.7-6.9-1-3-.4-6.1-.8-7-1-.9-.1-3.6-.6-6.1-1-2.5-.3-5.8-.9-7.5-1.1-1.6-.3-4.3-.7-6-1-1.6-.2-4.1-.6-5.5-.9-1.4-.3-4.1-.8-6-1.1-1.9-.2-5.7-.9-8.5-1.5-2.7-.5-6.1-1.1-7.5-1.4-15.1-2.6-20-4-17.8-4.8 1.3-.5 2.8-1 3.3-1.1.6-.1 2.4-.7 4-1.3 1.7-.6 6.4-2.1 10.5-3.3 4.1-1.2 9.1-2.8 11-3.5 1.9-.7 3.8-1.3 4.2-1.4 1.5-.3 4.4-1.4 9.7-3.7 2.9-1.3 5.8-2.4 6.3-2.4s1.4-.5 2.1-1c.7-.6 4.7-3.3 9.1-6.1 4.3-2.7 7.6-5.2 7.4-5.5-.3-.2-7.3-.5-15.6-.5-10.8-.1-14.9-.4-14.8-1.2.7-3.5 4.6-14.6 8.1-23.2.5-1.1.9-2.2 1-2.5.1-.3.7-1.9 1.4-3.5.7-1.7 2.2-5.9 3.3-9.5 1.1-3.6 2.3-7.4 2.7-8.5 1.2-3 1.1-18.2-.1-21.6-1.1-3.1-1.8-3.1-9.3-.8-8.6 2.8-26.8 20.1-34 32.6-1.1 1.8-2.3 3.3-2.7 3.3-.5 0-1.2 1-1.7 2.2-.5 1.3-2.5 4.5-4.5 7.3-2 2.7-3.6 5.5-3.6 6.2 0 .6-.4 1.3-.8 1.5-.5.1-4.3 6.1-8.6 13.3-4.3 7.1-9.1 14.3-10.6 16-1.5 1.6-4.2 5.2-6.1 7.8-3.9 5.7-2.8 5.7-22.9 0-6.9-1.9-13.3-3.5-14.2-3.4-2.4 0-2.2-1.5.7-6.9 1.4-2.5 3.2-5.9 4-7.7.8-1.7 1.9-3.4 2.5-3.8.5-.3 1-1.5 1-2.5s.4-2 .9-2.2c.4-.2 3.4-5.3 6.6-11.3 3.2-6.1 6.3-11.3 6.9-11.7.6-.4.7-.8.2-.8-.5 0-.4-.6.1-1.3 1-1.2 3.8-6.3 11-19.7 2-3.6 4.3-7.9 5.3-9.5.9-1.7 3.3-5.9 5.2-9.5 2-3.6 4.7-8.6 6.2-11.3 1.4-2.6 3.8-6.8 5.2-9.5 1.4-2.6 3.1-5.3 3.6-6 .6-.6.7-1.2.2-1.2-.5 0-.4-.4.1-.8 1.1-.8 3.5-5 9.2-16 3.6-6.9 4.4-7.7 9.4-8.6.8-.1 3.2-.8 5.4-1.4 2.2-.6 5.1-1.3 6.5-1.6 1.4-.3 7.5-1.7 13.5-3.2 12.9-3.2 13.8-3.9 27.5-21.9 4.6-6.1 8.8-11.5 9.2-12 .5-.6 2.7-3.5 5-6.5 2.4-3 4.7-6 5.3-6.6.5-.6 1.7-2.2 2.5-3.4.8-1.2 3-3.9 4.7-5.9 1.8-2 3.3-4 3.3-4.4 0-.4.8-1.7 1.9-2.8 1-1.1 7.2-8.9 13.7-17.4l11.9-15.3.7 4.2c.4 2.2 1 5.7 1.3 7.6zm242.4 101.4c1.7 2.5 3.7 5 4.4 5.8 1.1 1.2 33.7 49.4 36.2 53.6 1 1.6 5 7.2 9.8 13.6 3.7 4.9 15 18.9 16.7 20.6.8.8 2.6 2.9 4 4.5 1.4 1.7 5.9 5.9 10 9.5 4.1 3.5 10.4 9.1 13.9 12.5 9.8 9.3 10.1 9.5 19.1 17.5 4.7 4.1 8.7 7.7 9 8 .3.3 1.2.9 2.1 1.5.9.5 4.3 2.9 7.5 5.1 5.2 3.6 15.5 9.4 16.8 9.4 1.3 0-4.9-14.9-7.7-18.5-.4-.6-3-4.2-5.8-8-2.9-3.9-5.6-7.2-6-7.3-.5-.2-.9-.9-.9-1.5 0-.7-2.2-3.5-4.8-6.3-2.6-2.9-7.2-8-10.2-11.4-3-3.5-7.2-8-9.4-10.1-3.2-3.2-3.7-4.3-3.2-6.6.3-1.5.9-3.9 1.2-5.3.2-1.4 1.2-4.5 2.1-7 .8-2.5 1.7-5.1 1.9-5.9.3-.9 1.1-.4 2.6 1.5 1.3 1.6 2.7 3.4 3.3 4 3.3 3.7 11.2 13 12.5 14.8.8 1.1 2.7 3.4 4.1 5.1 2.8 3.1 5.3 6 7.9 9.2 3.4 4.2 10.6 13 12.6 15.3 1.2 1.4 4.1 4.7 6.3 7.5 2.3 2.7 5 5.9 6 7 .9 1.1 6.2 7.4 11.6 14 5.5 6.6 10.2 12.2 10.5 12.5.3.3 2.5 3 5 6s5.1 6.1 5.8 6.8c2.1 2.3.5 2.9-8.5 3.2-4.9.1-11.9.4-15.8.6-24.1 1-59.1 1.7-93 1.7-52.7 0-95.7-1.1-145.5-3.8-4.7-.3-12.3-.7-17-.9-4.7-.3-12.1-.7-16.5-1.1-4.4-.3-10.9-.8-14.5-1-3.6-.3-9.2-.7-12.5-.9-3.3-.3-10.3-.8-15.5-1.1-5.2-.4-9.7-.9-10-1.1-.2-.3.9-1.6 2.5-3 10.1-8.5 27.9-27.2 39.5-41.4 2.5-3 4.8-5.7 5.3-5.8.4-.2.7-1 .7-1.7s.4-1.5.8-1.7c.5-.2 5.8-6.8 11.8-14.8 12.8-17 12-15.9 14.2-18.6.9-1.2 5.1-6.5 9.2-11.8 7.3-9.3 10.7-12.4 7.6-6.9-1.3 2.3-3.2 6.6-4.1 9.3-.1.3-.7 1.8-1.3 3.3-.7 1.5-1.5 4-1.8 5.5-.4 1.5-.9 3.1-1.3 3.7-.3.5-.6 1.4-.8 2-.1.5-.5 2.1-.8 3.5-1.6 6-2.2 10-1.6 10 .4 0 4.7-4.1 9.7-9.1 11.5-11.8 12.4-12.8 12.4-13.5 0-.3.7-1.3 1.6-2.1.9-.9 3.4-4.1 5.7-7.2 2.3-3.1 4.4-5.8 4.7-6.1.7-.7 12.4-19 13.4-21 .4-.8 1.2-2.4 1.9-3.5 1.4-2.2 9-16.7 9.2-17.5.1-.3 1.1-2.5 2.2-5 2-4.4 7.6-18.8 8.7-22.3.8-2.4 1.1-2.2 4.5 2.7z"/></svg>